<svg xmlns="http://www.w3.org/2000/svg" width="167.394" height="55.984" viewBox="0 0 167.394 55.984">
  <g id="application-img" transform="translate(-0.001)">
    <path id="Subtraction_2" data-name="Subtraction 2" d="M-3917.6-12428.016H-4064a16.292,16.292,0,0,1-2.477-.234l-.321-.047a8.4,8.4,0,0,1-2.66-.84,8.506,8.506,0,0,1-2.24-1.677,7.262,7.262,0,0,1-1.679-2.381,8.489,8.489,0,0,1-.84-2.66l-.041-.283a16.586,16.586,0,0,1-.238-2.515v-34.853a21.159,21.159,0,0,1,.279-2.8,9.818,9.818,0,0,1,.84-2.66,8.506,8.506,0,0,1,1.679-2.24,8.506,8.506,0,0,1,2.24-1.677,9.708,9.708,0,0,1,2.66-.839l.183-.026.126-.019.015,0A16.312,16.312,0,0,1-4064-12484h146.4a16.314,16.314,0,0,1,2.485.236l.242.035.074.011a8.388,8.388,0,0,1,2.657.839,8.793,8.793,0,0,1,3.919,3.917,8.4,8.4,0,0,1,.84,2.659l.049.335a16.289,16.289,0,0,1,.233,2.463v34.994a16.289,16.289,0,0,1-.233,2.463l-.049.335a8.4,8.4,0,0,1-.84,2.659,8.449,8.449,0,0,1-1.679,2.24,8.451,8.451,0,0,1-2.24,1.677,8.388,8.388,0,0,1-2.657.84l-.2.029-.128.019h-.009A16.311,16.311,0,0,1-3917.6-12428.016Zm-146.258-54.584a15.437,15.437,0,0,0-2.615.271l-.044.007h-.008l-.015,0a6.723,6.723,0,0,0-2.355.7l-.012.007a9.994,9.994,0,0,0-1.949,1.391,10.037,10.037,0,0,0-1.4,1.959,7.253,7.253,0,0,0-.84,2.242,17.072,17.072,0,0,0-.282,2.657v34.853a15.347,15.347,0,0,0,.282,2.656,6.689,6.689,0,0,0,.7,2.381,6.221,6.221,0,0,0,1.4,1.959,9.829,9.829,0,0,0,1.942,1.391l.016.01c.18.06.356.12.522.178a11.088,11.088,0,0,0,1.856.521,16.834,16.834,0,0,0,2.66.282h146.54a15.353,15.353,0,0,0,2.658-.282,4.715,4.715,0,0,0,2.38-.7,6.355,6.355,0,0,0,1.961-1.4,9.9,9.9,0,0,0,1.386-1.941l.011-.018c.049-.146.1-.288.146-.428l.015-.043a11.6,11.6,0,0,0,.541-1.91q.029-.208.058-.407a15.751,15.751,0,0,0,.22-2.249v-34.853a17.332,17.332,0,0,0-.279-2.657l0-.018-.031-.159a6.355,6.355,0,0,0-.667-2.063,7.746,7.746,0,0,0-3.359-3.358c-.164-.055-.322-.109-.477-.163a11.6,11.6,0,0,0-1.9-.539l-.409-.059a15.74,15.74,0,0,0-2.251-.22h-146.4Z" transform="translate(4074.5 12484)" fill="#fff"/>
    <g id="Group_3694" data-name="Group 3694" transform="translate(49.966 11.617)">
      <g id="Group_3693" data-name="Group 3693">
        <path id="Path_4792" data-name="Path 4792" d="M42.558,12.759a4.477,4.477,0,0,1-1.12,3.219,4.609,4.609,0,0,1-3.359,1.12H35.7V8.7h2.519A4.124,4.124,0,0,1,41.3,9.82,3.435,3.435,0,0,1,42.558,12.759Zm-1.54,0c0-1.959-.98-3.079-2.8-3.079H37.1v6.158h.98C40.039,15.978,41.019,14.858,41.019,12.759Z" transform="translate(-35.7 -8.14)" fill="#fff"/>
        <path id="Path_4793" data-name="Path 4793" d="M47.518,13.319a3.908,3.908,0,0,1-.84,2.519,2.955,2.955,0,0,1-2.239.84,2.821,2.821,0,0,1-1.54-.42,2.49,2.49,0,0,1-.98-1.12,3.874,3.874,0,0,1-.42-1.819,3.292,3.292,0,0,1,.84-2.379,3.406,3.406,0,0,1,4.479,0A3.235,3.235,0,0,1,47.518,13.319Zm-4.479,0c0,1.54.56,2.239,1.68,2.239s1.54-.7,1.54-2.239c0-1.4-.56-2.239-1.68-2.239a1.364,1.364,0,0,0-1.26.56A3.031,3.031,0,0,0,43.04,13.319Z" transform="translate(-33.382 -7.581)" fill="#fff"/>
        <path id="Path_4794" data-name="Path 4794" d="M52.458,16.578l-.84-2.939c-.14-.28-.28-1.12-.56-2.239h0c-.28.98-.42,1.819-.56,2.239l-.84,2.939h-1.54L46.3,10.14h1.4l.84,3.219c.14.84.28,1.4.42,1.959h0c0-.28.14-.56.14-.98a2.463,2.463,0,0,0,.14-.84l.98-3.359h1.54l.98,3.359a5.5,5.5,0,0,0,.28.84,2.463,2.463,0,0,1,.14.84h0a7.022,7.022,0,0,1,.42-1.959L54.418,10h1.4L54,16.438h-1.54Z" transform="translate(-31.464 -7.621)" fill="#fff"/>
        <path id="Path_4795" data-name="Path 4795" d="M59.538,16.578h-1.4V12.659a2.168,2.168,0,0,0-.28-1.12,1.09,1.09,0,0,0-.98-.42,1.364,1.364,0,0,0-1.26.56,2.432,2.432,0,0,0-.42,1.68v3.219H53.8V10.14h1.12l.14.84h0a1.433,1.433,0,0,1,.84-.7,3.294,3.294,0,0,1,1.12-.28c1.54,0,2.239.84,2.239,2.379v4.2Z" transform="translate(-28.467 -7.621)" fill="#fff"/>
        <path id="Path_4796" data-name="Path 4796" d="M60.7,17.257H59.3V8.3h1.4Z" transform="translate(-26.269 -8.3)" fill="#fff"/>
        <path id="Path_4797" data-name="Path 4797" d="M67.518,13.319a3.908,3.908,0,0,1-.84,2.519,2.955,2.955,0,0,1-2.239.84,2.821,2.821,0,0,1-1.54-.42,2.49,2.49,0,0,1-.98-1.12,3.874,3.874,0,0,1-.42-1.819,3.292,3.292,0,0,1,.84-2.379,3.406,3.406,0,0,1,4.479,0A4,4,0,0,1,67.518,13.319Zm-4.619,0c0,1.54.56,2.239,1.68,2.239s1.54-.7,1.54-2.239c0-1.4-.56-2.239-1.68-2.239a1.364,1.364,0,0,0-1.26.56A5.22,5.22,0,0,0,62.9,13.319Z" transform="translate(-25.39 -7.581)" fill="#fff"/>
        <path id="Path_4798" data-name="Path 4798" d="M71.079,16.538l-.28-.84h0a1.882,1.882,0,0,1-.98.84,2.8,2.8,0,0,1-1.26.28,1.623,1.623,0,0,1-1.4-.56,1.623,1.623,0,0,1-.56-1.4,2.005,2.005,0,0,1,.7-1.54,3.309,3.309,0,0,1,2.239-.56h1.12v-.28a2.023,2.023,0,0,0-.28-.98,1.183,1.183,0,0,0-.84-.28,2.382,2.382,0,0,0-.98.14,1.989,1.989,0,0,1-.84.28l-.42-.98a9.643,9.643,0,0,1,1.12-.42,3.478,3.478,0,0,1,1.12-.14,2.375,2.375,0,0,1,1.82.56,2.231,2.231,0,0,1,.56,1.68v4.339h-.84Zm-1.959-.98a1.445,1.445,0,0,0,1.54-1.54v-.56h-.84a3.011,3.011,0,0,0-1.4.28.846.846,0,0,0-.42.84,1.069,1.069,0,0,0,.28.7A1.028,1.028,0,0,0,69.119,15.558Z" transform="translate(-23.352 -7.581)" fill="#fff"/>
        <path id="Path_4799" data-name="Path 4799" d="M74.219,17.4a2.079,2.079,0,0,1-1.819-.84,4,4,0,0,1-.7-2.379,4.476,4.476,0,0,1,.7-2.519,2.421,2.421,0,0,1,3.779.14h0c0-.42-.14-.84-.14-1.12V8.3h1.4v8.958h-1.12l-.28-.84h0A1.9,1.9,0,0,1,74.219,17.4Zm.28-1.12a1.711,1.711,0,0,0,1.26-.42,2.251,2.251,0,0,0,.42-1.54v-.14a2.431,2.431,0,0,0-.42-1.68,1.774,1.774,0,0,0-1.26-.56,1.273,1.273,0,0,0-1.12.56,2.985,2.985,0,0,0-.42,1.68,2.985,2.985,0,0,0,.42,1.68A1.589,1.589,0,0,0,74.5,16.278Z" transform="translate(-21.314 -8.3)" fill="#fff"/>
        <path id="Path_4800" data-name="Path 4800" d="M83.579,16.578l-.28-.84h0a1.882,1.882,0,0,1-.98.84,2.8,2.8,0,0,1-1.26.28,1.623,1.623,0,0,1-1.4-.56,1.623,1.623,0,0,1-.56-1.4,2.005,2.005,0,0,1,.7-1.54,3.309,3.309,0,0,1,2.239-.56h1.12v-.28a2.023,2.023,0,0,0-.28-.98,1.183,1.183,0,0,0-.84-.28,2.382,2.382,0,0,0-.98.14c-.28.14-.42,0-.7.14l-.42-.98a9.642,9.642,0,0,1,1.12-.42,3.478,3.478,0,0,1,1.12-.14,2.375,2.375,0,0,1,1.82.56,2.231,2.231,0,0,1,.56,1.68v4.339h-.98Zm-1.959-.98a1.445,1.445,0,0,0,1.54-1.54V13.5h-.84a3.011,3.011,0,0,0-1.4.28.846.846,0,0,0-.42.84,1.069,1.069,0,0,0,.28.7A1.028,1.028,0,0,0,81.619,15.6Z" transform="translate(-18.357 -7.621)" fill="#fff"/>
        <path id="Path_4801" data-name="Path 4801" d="M90.038,16.578h-1.4V12.659a2.168,2.168,0,0,0-.28-1.12,1.09,1.09,0,0,0-.98-.42,1.364,1.364,0,0,0-1.26.56,2.691,2.691,0,0,0-.42,1.68v3.219H84.3V10.14h1.12l.14.84h0a1.433,1.433,0,0,1,.84-.7,3.294,3.294,0,0,1,1.12-.28c1.54,0,2.239.84,2.239,2.379v4.2Z" transform="translate(-16.279 -7.621)" fill="#fff"/>
        <path id="Path_4802" data-name="Path 4802" d="M92.119,17.4a2.079,2.079,0,0,1-1.819-.84,4,4,0,0,1-.7-2.379,4.476,4.476,0,0,1,.7-2.519,2.421,2.421,0,0,1,3.779.14h0c0-.42-.14-.84-.14-1.12V8.3h1.4v8.958h-1.12l-.28-.84h0A1.9,1.9,0,0,1,92.119,17.4Zm.28-1.12a1.711,1.711,0,0,0,1.26-.42,2.251,2.251,0,0,0,.42-1.54v-.14a2.432,2.432,0,0,0-.42-1.68,1.774,1.774,0,0,0-1.26-.56,1.273,1.273,0,0,0-1.12.56,2.985,2.985,0,0,0-.42,1.68,2.985,2.985,0,0,0,.42,1.68A1.589,1.589,0,0,0,92.4,16.278Z" transform="translate(-14.161 -8.3)" fill="#fff"/>
        <path id="Path_4803" data-name="Path 4803" d="M98.459,10h.7l-.28,1.4h-.56a1.364,1.364,0,0,0-1.26.56,2.487,2.487,0,0,0-.56,1.4v3.359H95.1V10.28h1.12l.14,1.12h0c.28-.42.42-.7.84-.84A1.71,1.71,0,0,1,98.459,10Z" transform="translate(-11.963 -7.621)" fill="#fff"/>
        <path id="Path_4804" data-name="Path 4804" d="M104.618,13.319a3.908,3.908,0,0,1-.84,2.519,2.955,2.955,0,0,1-2.239.84,2.821,2.821,0,0,1-1.54-.42,2.49,2.49,0,0,1-.98-1.12,3.874,3.874,0,0,1-.42-1.819,3.292,3.292,0,0,1,.84-2.379,3.406,3.406,0,0,1,4.479,0A4,4,0,0,1,104.618,13.319Zm-4.619,0c0,1.54.56,2.239,1.68,2.239s1.54-.7,1.54-2.239c0-1.4-.56-2.239-1.68-2.239a1.364,1.364,0,0,0-1.26.56A5.22,5.22,0,0,0,100,13.319Z" transform="translate(-10.565 -7.581)" fill="#fff"/>
        <path id="Path_4805" data-name="Path 4805" d="M104,9.1c0-.28,0-.42.14-.56s.28-.14.56-.14.42,0,.56.14.14.28.14.56,0,.42-.14.56-.28.14-.56.14-.42,0-.56-.14S104,9.38,104,9.1Zm1.4,8.118H104V10.779h1.4Z" transform="translate(-8.407 -8.26)" fill="#fff"/>
        <path id="Path_4806" data-name="Path 4806" d="M108.719,17.4a2.079,2.079,0,0,1-1.819-.84,4,4,0,0,1-.7-2.379,4.476,4.476,0,0,1,.7-2.519,2.421,2.421,0,0,1,3.779.14h0c0-.42-.14-.84-.14-1.12V8.3h1.4v8.958h-1.12l-.28-.84h0A1.776,1.776,0,0,1,108.719,17.4Zm.42-1.12a1.711,1.711,0,0,0,1.26-.42,2.251,2.251,0,0,0,.42-1.54v-.14a2.431,2.431,0,0,0-.42-1.68,1.774,1.774,0,0,0-1.26-.56,1.273,1.273,0,0,0-1.12.56,2.985,2.985,0,0,0-.42,1.68,2.985,2.985,0,0,0,.42,1.68C108.159,16.138,108.579,16.278,109.139,16.278Z" transform="translate(-7.528 -8.3)" fill="#fff"/>
      </g>
    </g>
    <g id="_Group__1_" transform="translate(14.136 11.979)">
      <g id="_Group_2_1_">
        <g id="surface60420">
          <path id="Path_4807" data-name="Path 4807" d="M17.238,8.617c-.14,0-.14,0-.28.14a.527.527,0,0,0-.14.84l1.4,2.1a8.149,8.149,0,0,0-4.2,5.179h17.5a8.149,8.149,0,0,0-4.2-5.179l1.4-2.1c.14-.28.14-.7-.14-.84s-.7-.14-.84.14L26.2,11.136a8.922,8.922,0,0,0-3.359-.56,12.974,12.974,0,0,0-3.359.56l-1.54-2.379A.615.615,0,0,0,17.238,8.617Zm2.1,5.039a.98.98,0,1,1-.98.98A.957.957,0,0,1,19.337,13.655Zm7,0a.98.98,0,1,1-.98.98A.957.957,0,0,1,26.335,13.655ZM12.059,17.994A2,2,0,0,0,10.1,19.953v8.818a2,2,0,0,0,1.959,1.959,1.262,1.262,0,0,0,.7-.14V18.134A6.062,6.062,0,0,1,12.059,17.994Zm1.819,0v14a2,2,0,0,0,1.959,1.959h14a2,2,0,0,0,1.959-1.959v-14Zm19.734,0a1.262,1.262,0,0,0-.7.14V30.59a6.062,6.062,0,0,0,.7.14,2,2,0,0,0,1.959-1.959V19.953A2.23,2.23,0,0,0,33.613,17.994ZM16.4,35.209v2.519a2.519,2.519,0,0,0,5.039,0V35.209Zm7.7,0v2.519a2.519,2.519,0,1,0,5.039,0V35.209Z" transform="translate(-10.1 -8.559)" fill="#fff"/>
        </g>
      </g>
      <g id="Group_3695" data-name="Group 3695" transform="translate(34.15 15.034)">
        <path id="Path_4808" data-name="Path 4808" d="M45.417,34.636l-1.4-4.059h-5.6l-1.4,4.059H34.5L39.958,19.8h2.519l5.458,14.836Zm-2.1-6.018-1.4-3.919a6.507,6.507,0,0,1-.42-1.26,6.507,6.507,0,0,0-.42-1.26,11.535,11.535,0,0,1-.84,2.659l-1.26,3.779Z" transform="translate(-34.5 -19.1)" fill="#fff"/>
        <path id="Path_4809" data-name="Path 4809" d="M50.658,33.777a3.981,3.981,0,0,1-3.219-1.54H47.3a11.658,11.658,0,0,1,.14,1.68v4.619H45.2V22.58h1.819c0,.14.14.7.28,1.4h.14a3.584,3.584,0,0,1,3.219-1.68,3.981,3.981,0,0,1,3.219,1.54,7.14,7.14,0,0,1,1.12,4.2,7.14,7.14,0,0,1-1.12,4.2A3.341,3.341,0,0,1,50.658,33.777Zm-.56-9.517a2.179,2.179,0,0,0-1.959.84,4.325,4.325,0,0,0-.7,2.659v.28A5.47,5.47,0,0,0,48,30.978a2.456,2.456,0,0,0,2.1.84,1.9,1.9,0,0,0,1.819-.98,5.147,5.147,0,0,0,.7-2.8,5.147,5.147,0,0,0-.7-2.8A1.775,1.775,0,0,0,50.1,24.259Z" transform="translate(-30.224 -18.101)" fill="#fff"/>
        <path id="Path_4810" data-name="Path 4810" d="M59.358,33.777a3.981,3.981,0,0,1-3.219-1.54H56a11.659,11.659,0,0,1,.14,1.68v4.619H53.9V22.58h1.819c0,.14.14.7.28,1.4h.14a3.584,3.584,0,0,1,3.219-1.68,3.981,3.981,0,0,1,3.219,1.54,7.14,7.14,0,0,1,1.12,4.2,7.14,7.14,0,0,1-1.12,4.2A3.626,3.626,0,0,1,59.358,33.777Zm-.56-9.517a2.179,2.179,0,0,0-1.959.84,4.325,4.325,0,0,0-.7,2.659v.28a5.47,5.47,0,0,0,.56,2.939,2.456,2.456,0,0,0,2.1.84,1.9,1.9,0,0,0,1.819-.98,5.147,5.147,0,0,0,.7-2.8,5.147,5.147,0,0,0-.7-2.8A1.775,1.775,0,0,0,58.8,24.259Z" transform="translate(-26.748 -18.101)" fill="#fff"/>
        <path id="Path_4811" data-name="Path 4811" d="M64.879,34.836H62.5V19.3h2.239l.14,15.536Z" transform="translate(-23.311 -19.3)" fill="#fff"/>
        <path id="Path_4812" data-name="Path 4812" d="M66.3,20.76a2.023,2.023,0,0,1,.28-.98,1.181,1.181,0,0,1,.98-.28,2.023,2.023,0,0,1,.98.28,1.181,1.181,0,0,1,.28.98,2.023,2.023,0,0,1-.28.98,1.181,1.181,0,0,1-.98.28,2.023,2.023,0,0,1-.98-.28A2.023,2.023,0,0,1,66.3,20.76Zm2.519,14H66.58V23.7h2.239Z" transform="translate(-21.792 -19.22)" fill="#fff"/>
        <path id="Path_4813" data-name="Path 4813" d="M74.639,33.737a4.671,4.671,0,0,1-3.779-1.4,6.269,6.269,0,0,1-1.26-4.2,5.654,5.654,0,0,1,1.4-4.2,5.051,5.051,0,0,1,3.919-1.54A7.125,7.125,0,0,1,78,23.1l-.7,1.819a6.28,6.28,0,0,0-2.379-.56c-1.819,0-2.8,1.26-2.8,3.779a5.147,5.147,0,0,0,.7,2.8,2.528,2.528,0,0,0,2.1.98,5.879,5.879,0,0,0,2.939-.84v2.1a4.971,4.971,0,0,1-1.26.56Z" transform="translate(-20.474 -18.061)" fill="#fff"/>
        <path id="Path_4814" data-name="Path 4814" d="M83.958,33.557l-.42-1.54H83.4a3.954,3.954,0,0,1-3.639,1.819A3.422,3.422,0,0,1,77.24,33a3.422,3.422,0,0,1-.84-2.519,2.826,2.826,0,0,1,1.26-2.519,8.2,8.2,0,0,1,3.779-.98h1.819v-.56a2.251,2.251,0,0,0-.42-1.54,2.238,2.238,0,0,0-1.54-.56,5.031,5.031,0,0,0-1.54.28c-.56.14-.98.42-1.54.56l-.7-1.68a8.093,8.093,0,0,1,1.959-.7,10.979,10.979,0,0,1,1.959-.28,4.083,4.083,0,0,1,3.079.98,3.473,3.473,0,0,1,1.12,2.8v7.558h-1.68ZM80.6,32.017a2.769,2.769,0,0,0,1.959-.7,2.273,2.273,0,0,0,.7-1.959v-.98h-1.4a4.94,4.94,0,0,0-2.379.56c-.56.28-.7.84-.7,1.54a1.589,1.589,0,0,0,.42,1.12A2.364,2.364,0,0,0,80.6,32.017Z" transform="translate(-17.756 -18.021)" fill="#fff"/>
        <path id="Path_4815" data-name="Path 4815" d="M89.719,32.557a7.025,7.025,0,0,0,1.68-.28V34.1a8.92,8.92,0,0,1-.98.28,3.875,3.875,0,0,1-1.26.14c-2.239,0-3.219-1.12-3.219-3.5V25H84.4v-.98l1.54-.84.84-2.379h1.4v2.379h3.079V25H88.179v6.018a1.711,1.711,0,0,0,.42,1.26A2.168,2.168,0,0,0,89.719,32.557Z" transform="translate(-14.559 -18.701)" fill="#fff"/>
        <path id="Path_4816" data-name="Path 4816" d="M90.9,20.76a2.023,2.023,0,0,1,.28-.98,1.181,1.181,0,0,1,.98-.28,2.023,2.023,0,0,1,.98.28,1.181,1.181,0,0,1,.28.98,2.023,2.023,0,0,1-.28.98,1.181,1.181,0,0,1-.98.28,2.023,2.023,0,0,1-.98-.28A1.181,1.181,0,0,1,90.9,20.76Zm2.519,14H91.18V23.7h2.239Z" transform="translate(-11.962 -19.22)" fill="#fff"/>
        <path id="Path_4817" data-name="Path 4817" d="M104.517,28.138a5.654,5.654,0,0,1-1.4,4.2,4.947,4.947,0,0,1-3.779,1.54,5.36,5.36,0,0,1-2.659-.7,4.128,4.128,0,0,1-1.819-1.959,6.736,6.736,0,0,1-.56-3.079,5.654,5.654,0,0,1,1.4-4.2,4.947,4.947,0,0,1,3.779-1.54,5.168,5.168,0,0,1,3.779,1.54A6.807,6.807,0,0,1,104.517,28.138Zm-8.118,0c0,2.519.98,3.779,2.8,3.779s2.8-1.26,2.8-3.779-.98-3.779-2.8-3.779a2.209,2.209,0,0,0-2.1.98A4.814,4.814,0,0,0,96.4,28.138Z" transform="translate(-10.603 -18.061)" fill="#fff"/>
        <path id="Path_4818" data-name="Path 4818" d="M112.517,33.637h-2.379V26.779a2.736,2.736,0,0,0-.56-1.959,1.744,1.744,0,0,0-1.54-.56,2.456,2.456,0,0,0-2.1.84,5.006,5.006,0,0,0-.7,2.939v5.6H103V22.58h1.82l.28,1.4h.14a3.063,3.063,0,0,1,1.4-1.26,4.47,4.47,0,0,1,1.959-.42c2.659,0,3.919,1.4,3.919,4.059Z" transform="translate(-7.127 -18.101)" fill="#fff"/>
      </g>
    </g>
  </g>
</svg>
