<?xml version="1.0" encoding="UTF-8"?>
<svg xmlns="http://www.w3.org/2000/svg" xmlns:xlink="http://www.w3.org/1999/xlink" width="429pt" height="264pt" viewBox="0 0 429 264" version="1.1">
<g id="surface1">
<path style=" stroke:none;fill-rule:evenodd;fill:rgb(90.19928%,90.59906%,90.99884%);fill-opacity:1;" d="M 380.015625 4.496094 C 382.148438 3.691406 384.277344 2.859375 386.390625 1.996094 L 386.820313 1.820313 L 387.265625 1.695313 C 390.113281 0.902344 393.054688 0.503906 396.011719 0.503906 C 413.945313 0.503906 428.496094 15.054688 428.496094 32.988281 L 428.496094 231.132813 C 428.496094 249.070313 413.945313 263.617188 396.011719 263.617188 C 390.992188 263.617188 386.371094 262.566406 381.875 260.386719 C 357.941406 251.152344 332.238281 245.023438 306.964844 240.882813 C 276.382813 235.871094 245.164063 233.632813 214.1875 233.632813 C 160.53125 233.632813 99.921875 240.4375 49.335938 259.3125 C 44.714844 261.898438 39.03125 263.015625 33.851563 263.570313 L 33.394531 263.617188 L 32.9375 263.617188 C 15.097656 263.484375 0.691406 248.972656 0.691406 231.132813 L 0.691406 32.988281 C 0.691406 15.054688 15.242188 0.503906 33.175781 0.503906 C 38.535156 0.503906 43.175781 1.601563 47.925781 4.039063 C 99.257813 23.515625 159.628906 30.253906 214.1875 30.253906 C 245.921875 30.253906 277.972656 27.878906 309.285156 22.671875 C 332.972656 18.730469 357.378906 13.03125 380.015625 4.496094 "/>
<path style=" stroke:none;fill-rule:evenodd;fill:rgb(89.399719%,11.399841%,14.099121%);fill-opacity:1;" d="M 33.175781 8.554688 C 37.128906 8.554688 40.613281 9.265625 44.621094 11.394531 C 88.269531 28.035156 146.667969 38.300781 214.1875 38.300781 C 281.710938 38.300781 345.367188 27.414063 389.429688 9.449219 C 389.410156 9.554688 389.449219 9.347656 389.429688 9.449219 C 391.523438 8.867188 393.730469 8.554688 396.011719 8.554688 C 409.503906 8.554688 420.445313 19.496094 420.445313 32.988281 L 420.445313 231.132813 C 420.445313 244.625 409.503906 255.566406 396.011719 255.566406 C 392.082031 255.566406 388.597656 254.746094 385.109375 253.003906 C 341.347656 236.0625 280.921875 225.582031 214.1875 225.582031 C 148.769531 225.582031 89.417969 235.652344 45.878906 252.011719 C 43.523438 253.445313 39.660156 254.855469 32.996094 255.566406 C 19.585938 255.46875 8.742188 244.5625 8.742188 231.132813 L 8.742188 32.988281 C 8.742188 19.496094 19.683594 8.554688 33.175781 8.554688 "/>
<path style=" stroke:none;fill-rule:nonzero;fill:rgb(100%,100%,100%);fill-opacity:1;" d="M 175.144531 164.449219 C 167.160156 173.554688 159.523438 178.132813 147.417969 178.132813 C 141.800781 178.132813 136.746094 177.296875 132.25 175.617188 C 127.757813 173.941406 123.738281 171.335938 120.195313 167.796875 C 117.003906 164.535156 114.570313 160.8125 112.886719 156.621094 C 112.027344 159.429688 110.605469 162.152344 108.464844 164.628906 C 98.25 176.433594 84.71875 179.75 69.0625 176.964844 C 53.410156 174.179688 42.632813 164.621094 41.503906 163.554688 C 40.375 162.492188 39.976563 162.027344 39.976563 162.027344 L 52.332031 147.121094 C 52.332031 147.121094 64.6875 158.128906 76.09375 158.921875 C 87.503906 159.71875 91.75 155.472656 93.207031 150.828125 C 94.667969 146.1875 86.972656 141.011719 79.148438 139.554688 C 71.320313 138.09375 54.871094 133.453125 48.765625 126.6875 C 42.664063 119.921875 40.277344 100.417969 51.554688 89.273438 C 62.828125 78.132813 84.585938 80.519531 92.546875 82.378906 C 100.503906 84.234375 108.863281 90.335938 110.734375 92.484375 L 100.378906 108.6875 C 100.378906 108.6875 91.882813 101.480469 82.59375 99.621094 C 73.308594 97.765625 65.613281 100.816406 64.953125 105.726563 C 64.289063 110.632813 65.878906 115.011719 78.351563 118.0625 C 90.820313 121.113281 101.167969 124.695313 106.871094 130.003906 C 108.023438 131.070313 109.1875 132.636719 110.234375 134.550781 C 110.605469 130.976563 111.355469 127.644531 112.480469 124.554688 C 114.167969 119.933594 116.738281 115.898438 120.195313 112.453125 C 123.738281 108.917969 127.757813 106.265625 132.25 104.496094 C 148.113281 98.257813 165.175781 102.753906 174.902344 115.238281 L 162.613281 128.886719 C 151.085938 115.585938 131.226563 120.125 130.113281 138.730469 C 129.003906 157.292969 149.367188 170.050781 163.378906 151.296875 Z M 223.398438 96.734375 L 223.398438 77.84375 L 244.574219 77.84375 L 244.574219 96.734375 Z M 385.550781 164.183594 C 380.527344 170.636719 374.027344 175.121094 367.257813 176.84375 C 363.871094 177.703125 360.160156 178.132813 356.128906 178.132813 C 350.722656 178.132813 345.863281 177.296875 341.546875 175.617188 C 337.230469 173.941406 333.421875 171.378906 330.113281 167.933594 C 326.886719 164.488281 324.445313 160.480469 322.792969 155.898438 C 322.519531 155.140625 322.265625 154.363281 322.035156 153.570313 C 321.898438 154.0625 321.753906 154.542969 321.601563 155.015625 C 320.894531 157.28125 319.988281 159.367188 318.882813 161.273438 C 317.777344 163.175781 316.476563 165.035156 314.972656 166.847656 C 313.292969 168.570313 311.527344 170.109375 309.671875 171.46875 C 307.816406 172.832031 305.871094 174.007813 303.839844 175.007813 C 301.71875 175.914063 299.554688 176.570313 297.34375 176.976563 C 295.136719 177.386719 292.882813 177.589844 290.585938 177.589844 C 288.109375 177.589844 285.8125 177.363281 283.691406 176.910156 C 281.570313 176.457031 279.582031 175.730469 277.726563 174.734375 C 275.960938 173.738281 274.457031 172.511719 273.21875 171.0625 C 271.980469 169.613281 271.011719 168.027344 270.304688 166.304688 L 270.304688 176.367188 L 248.035156 176.367188 L 248.035156 77.785156 L 270.964844 77.785156 L 270.964844 113.40625 C 271.671875 111.683594 272.578125 110.117188 273.683594 108.714844 C 274.789063 107.308594 276.179688 106.152344 277.859375 105.246094 C 279.539063 104.25 281.371094 103.523438 283.359375 103.070313 C 285.347656 102.617188 287.535156 102.390625 289.921875 102.390625 C 292.21875 102.390625 294.472656 102.59375 296.679688 103.003906 C 298.890625 103.410156 301.011719 104.113281 303.042969 105.109375 C 305.074219 106.015625 307.019531 107.148438 308.875 108.507813 C 310.730469 109.867188 312.496094 111.457031 314.175781 113.269531 C 315.769531 114.992188 317.160156 116.828125 318.351563 118.777344 C 319.546875 120.726563 320.539063 122.878906 321.335938 125.234375 C 321.566406 125.894531 321.78125 126.5625 321.980469 127.238281 C 322.207031 126.417969 322.457031 125.613281 322.730469 124.828125 C 324.347656 120.203125 326.765625 116.078125 329.992188 112.453125 C 333.21875 108.917969 336.949219 106.265625 341.183594 104.496094 C 345.417969 102.730469 350.199219 101.847656 355.519531 101.847656 C 376.4375 101.847656 392.707031 122.3125 389.226563 147.347656 L 340.34375 147.484375 C 340.902344 155.675781 347.683594 159.910156 356.367188 159.910156 C 359.105469 159.910156 366.746094 161.109375 373.625 153.160156 Z M 339.824219 134.074219 L 369.679688 134.074219 C 369.417969 131.808594 368.894531 129.769531 368.113281 127.953125 C 367.332031 126.140625 366.246094 124.601563 364.855469 123.332031 C 363.550781 122.0625 362.03125 121.109375 360.292969 120.476563 C 358.554688 119.839844 356.640625 119.523438 354.558594 119.523438 C 352.472656 119.523438 350.582031 119.839844 348.886719 120.476563 C 347.191406 121.109375 345.691406 122.109375 344.390625 123.46875 C 342.996094 124.828125 341.933594 126.390625 341.195313 128.160156 C 340.457031 129.925781 340 131.945313 339.824219 134.210938 Z M 285.488281 120.203125 C 283.101563 120.296875 280.910156 120.816406 278.921875 121.769531 C 276.929688 122.71875 275.140625 124.101563 273.546875 125.914063 C 271.953125 127.730469 270.761719 129.789063 269.964844 132.101563 C 269.167969 134.414063 268.769531 137.019531 268.769531 139.921875 C 268.769531 142.824219 269.167969 145.476563 269.964844 147.878906 C 270.761719 150.28125 271.953125 152.386719 273.546875 154.199219 C 275.238281 156.105469 277.078125 157.507813 279.070313 158.414063 C 281.058594 159.320313 283.199219 159.777344 285.488281 159.777344 C 287.976563 159.777344 290.214844 159.320313 292.203125 158.414063 C 294.195313 157.507813 295.984375 156.105469 297.578125 154.199219 C 299.269531 152.386719 300.511719 150.28125 301.308594 147.878906 C 302.105469 145.476563 302.503906 142.824219 302.503906 139.921875 C 302.503906 137.019531 302.105469 134.414063 301.308594 132.101563 C 300.511719 129.789063 299.320313 127.730469 297.726563 125.914063 C 296.136719 124.101563 294.320313 122.71875 292.277344 121.769531 C 290.238281 120.816406 287.976563 120.339844 285.488281 120.339844 Z M 223.398438 176.367188 L 223.398438 103.34375 L 244.574219 103.34375 L 244.574219 176.367188 Z M 176.875 176.367188 L 176.875 103.34375 L 197.445313 103.34375 L 197.445313 116.804688 C 199.480469 111.191406 212.578125 98.746094 220.726563 103.320313 L 219.929688 124.757813 C 202.882813 122.84375 198.050781 133.628906 198.050781 147.945313 L 198.050781 176.367188 L 176.875 176.367188 "/>
<path style=" stroke:none;fill-rule:evenodd;fill:rgb(100%,100%,100%);fill-opacity:1;" d="M 383.273438 85.824219 C 386.972656 85.824219 389.972656 89.183594 389.972656 93.320313 C 389.972656 97.460938 386.972656 100.816406 383.273438 100.816406 C 379.574219 100.816406 376.574219 97.460938 376.574219 93.320313 C 376.574219 89.183594 379.574219 85.824219 383.273438 85.824219 Z M 383.273438 87.316406 C 386.238281 87.316406 388.640625 90.003906 388.640625 93.320313 C 388.640625 96.636719 386.238281 99.328125 383.273438 99.328125 C 380.308594 99.328125 377.902344 96.636719 377.902344 93.320313 C 377.902344 90.003906 380.308594 87.316406 383.273438 87.316406 Z M 380.773438 96.457031 L 380.773438 90.1875 L 383.4375 90.1875 C 384.109375 90.1875 384.597656 90.242188 384.898438 90.355469 C 385.203125 90.46875 385.445313 90.667969 385.628906 90.957031 C 385.808594 91.246094 385.902344 91.574219 385.902344 91.945313 C 385.902344 92.414063 385.765625 92.804688 385.488281 93.109375 C 385.210938 93.414063 384.800781 93.609375 384.246094 93.6875 C 384.519531 93.847656 384.746094 94.023438 384.925781 94.214844 C 385.105469 94.40625 385.34375 94.746094 385.644531 95.234375 L 386.410156 96.457031 L 384.898438 96.457031 L 383.984375 95.089844 C 383.65625 94.605469 383.4375 94.296875 383.316406 94.171875 C 383.195313 94.042969 383.070313 93.957031 382.933594 93.910156 C 382.800781 93.863281 382.589844 93.839844 382.296875 93.839844 L 382.039063 93.839844 L 382.039063 96.457031 Z M 382.039063 92.839844 L 382.976563 92.839844 C 383.585938 92.839844 383.964844 92.8125 384.113281 92.761719 C 384.265625 92.710938 384.382813 92.621094 384.46875 92.496094 C 384.554688 92.371094 384.597656 92.214844 384.597656 92.027344 C 384.597656 91.8125 384.539063 91.644531 384.429688 91.515625 C 384.316406 91.386719 384.15625 91.304688 383.953125 91.269531 C 383.847656 91.253906 383.539063 91.246094 383.027344 91.246094 L 382.039063 91.246094 L 382.039063 92.839844 "/>
</g>
</svg>
